<svg width="25" height="24" viewBox="0 0 25 24" fill="none" xmlns="http://www.w3.org/2000/svg">
<path d="M17.6001 2.43005H7.6001C4.6001 2.43005 2.6001 4.43005 2.6001 7.43005V13.4301C2.6001 16.4301 4.6001 18.4301 7.6001 18.4301H11.6001L16.0501 21.3901C16.7101 21.8301 17.6001 21.3601 17.6001 20.5601V18.4301C20.6001 18.4301 22.6001 16.4301 22.6001 13.4301V7.43005C22.6001 4.43005 20.6001 2.43005 17.6001 2.43005ZM16.1001 11.2501H9.1001C8.6901 11.2501 8.3501 10.9101 8.3501 10.5001C8.3501 10.0901 8.6901 9.75005 9.1001 9.75005H16.1001C16.5101 9.75005 16.8501 10.0901 16.8501 10.5001C16.8501 10.9101 16.5101 11.2501 16.1001 11.2501Z" fill="#82FF35"/>
</svg>
