<svg width="25" height="24" viewBox="0 0 25 24" fill="none" xmlns="http://www.w3.org/2000/svg">
<path d="M2.20014 5.66996C2.20014 5.30996 2.28014 4.93996 2.45014 4.57996C2.62014 4.21996 2.84014 3.87996 3.13014 3.55996C3.62014 3.01996 4.16014 2.62996 4.77014 2.37996C5.37014 2.12996 6.03014 1.99996 6.73014 1.99996C7.75014 1.99996 8.84014 2.23996 9.99014 2.72996C11.1401 3.21996 12.3001 3.87996 13.4401 4.70996C14.0201 5.13996 14.5901 5.57996 15.1401 6.05996L11.8801 9.31996C11.8701 9.31996 11.8701 9.31996 11.8601 9.30996C11.3401 8.86996 10.9101 8.56996 10.5701 8.38996C10.5201 8.36996 10.4601 8.33996 10.3901 8.30996C10.3101 8.27996 10.2301 8.26996 10.1401 8.26996C9.97014 8.26996 9.84014 8.32996 9.73014 8.43996L8.97014 9.18996C8.72014 9.43996 8.48014 9.62996 8.25014 9.74996C8.02014 9.88996 7.79014 9.95996 7.54014 9.95996C7.35014 9.95996 7.15014 9.91996 6.93014 9.82996C6.71014 9.73996 6.48014 9.60996 6.23014 9.43996L2.91014 7.08996C2.65014 6.90996 2.47014 6.69996 2.36014 6.44996C2.26014 6.19996 2.20014 5.94996 2.20014 5.66996Z" fill="black"/>
<path d="M13.4402 10.76L16.7002 7.5C16.7102 7.5 16.7102 7.5 16.7202 7.51C17.7502 8.55 18.6802 9.64 19.5202 10.78C20.3302 11.9 20.9802 13.03 21.4602 14.14C21.4702 14.16 21.4702 14.17 21.4802 14.19C21.9602 15.33 22.2002 16.42 22.2002 17.46C22.2002 18.14 22.0802 18.79 21.8402 19.39C21.6402 19.9 21.3402 20.38 20.9302 20.81C20.8602 20.89 20.7802 20.98 20.6902 21.06C20.5302 21.22 20.3702 21.36 20.2002 21.47C20.1902 21.47 20.1902 21.47 20.1902 21.47C19.6902 21.83 19.1602 22 18.6002 22C18.3202 22 18.0402 21.94 17.7902 21.82C17.5502 21.71 17.3402 21.55 17.1702 21.32C17.1502 21.3 17.1402 21.28 17.1202 21.26L14.8002 17.99C14.6202 17.74 14.4902 17.51 14.4002 17.29C14.3102 17.08 14.2602 16.87 14.2602 16.68C14.2602 16.44 14.3302 16.2 14.4702 15.97C14.6002 15.74 14.7902 15.5 15.0302 15.26L15.7902 14.47C15.9002 14.36 15.9502 14.23 15.9502 14.07C15.9502 13.99 15.9402 13.92 15.9202 13.84C15.8902 13.76 15.8602 13.7 15.8402 13.64C15.6602 13.31 15.3502 12.88 14.9102 12.36C14.4602 11.84 13.9802 11.31 13.4602 10.78C13.4502 10.77 13.4502 10.77 13.4402 10.76Z" fill="black"/>
<path d="M2.43031 21.7701C2.73031 22.0701 3.22031 22.0701 3.52031 21.7701L21.9703 3.31012C22.2703 3.01012 22.2703 2.52011 21.9703 2.22012C21.8203 2.08012 21.6303 2.00012 21.4303 2.00012C21.2303 2.00012 21.0403 2.08012 20.8903 2.23012L2.43031 20.6901C2.12031 20.9901 2.12031 21.4701 2.43031 21.7701Z" fill="black"/>
</svg>
