<svg width="25" height="24" viewBox="0 0 25 24" fill="none" xmlns="http://www.w3.org/2000/svg">
<path d="M12.3999 15C16.1278 15 19.1499 12.0899 19.1499 8.5C19.1499 4.91015 16.1278 2 12.3999 2C8.67198 2 5.6499 4.91015 5.6499 8.5C5.6499 12.0899 8.67198 15 12.3999 15Z" fill="#82FF35"/>
<path d="M16.1899 15.61C16.5199 15.44 16.8999 15.69 16.8999 16.06V20.91C16.8999 21.81 16.2699 22.25 15.4899 21.88L12.8099 20.61C12.5799 20.51 12.2199 20.51 11.9899 20.61L9.3099 21.88C8.5299 22.24 7.8999 21.8 7.8999 20.9L7.9199 16.06C7.9199 15.69 8.3099 15.45 8.6299 15.61C9.7599 16.18 11.0399 16.5 12.3999 16.5C13.7599 16.5 15.0499 16.18 16.1899 15.61Z" fill="#82FF35"/>
</svg>
