<svg width="25" height="24" viewBox="0 0 25 24" fill="none" xmlns="http://www.w3.org/2000/svg">
<path d="M21.23 10.7C21.3338 10.7 21.4302 10.7963 21.4302 10.9001V12.782C21.449 17.5534 17.5647 21.4302 12.8003 21.4304C8.03611 21.4304 4.14994 17.5535 4.1499 12.78V10.9001C4.1499 10.7909 4.24158 10.7 4.3501 10.7C4.45388 10.7001 4.55029 10.7964 4.55029 10.9001V12.78C4.55034 17.326 8.2436 21.0201 12.7896 21.0203C17.3357 21.0203 21.0297 17.3261 21.0298 12.78V10.9001C21.0298 10.7909 21.1215 10.7 21.23 10.7Z" stroke="black"/>
<path d="M12.7993 2.5C15.883 2.5 18.3997 5.01593 18.3999 8.09961V12.79C18.3999 15.8739 15.8832 18.3896 12.7993 18.3896C9.71565 18.3894 7.19973 15.8737 7.19971 12.79V8.09961C7.19992 5.01606 9.71577 2.50021 12.7993 2.5ZM14.6802 9.35742C13.4463 9.01684 12.1468 8.99561 10.9048 9.29395L10.6577 9.35742C10.0634 9.51972 9.71487 10.1331 9.87744 10.7207V10.7217C10.0295 11.2791 10.5696 11.6213 11.1294 11.5273L11.2417 11.502C12.175 11.2458 13.1639 11.2458 14.0972 11.502L14.1147 11.5068L14.1313 11.5107C14.185 11.5215 14.2871 11.54 14.3901 11.54C14.8732 11.5398 15.3292 11.2201 15.4614 10.7207L15.4624 10.7217C15.6256 10.1235 15.2758 9.51958 14.6812 9.35742H14.6802ZM15.272 6.44824C13.5883 5.91983 11.77 5.92019 10.0796 6.44824L9.72021 6.56934L9.71436 6.57227C9.17749 6.77359 8.88407 7.34039 9.01611 7.87988L9.04834 7.9873L9.05127 7.99512C9.26774 8.57236 9.90526 8.86552 10.4849 8.64844L10.4839 8.64746C11.9021 8.12912 13.4594 8.13051 14.8774 8.64941V8.64844C15.0157 8.70335 15.1468 8.71969 15.2593 8.71973C15.6552 8.71973 16.0298 8.50977 16.2271 8.15137L16.3003 7.98926L16.3013 7.9873C16.4907 7.45343 16.243 6.86567 15.7397 6.61719L15.6353 6.57227L15.6304 6.57031L15.272 6.44824Z" fill="black" stroke="black"/>
</svg>
