<svg width="24" height="24" viewBox="0 0 24 24" fill="none" xmlns="http://www.w3.org/2000/svg">
<path d="M6.44 2H17.55C21.11 2 22 2.89 22 6.44V12.77C22 16.33 21.11 17.21 17.56 17.21H6.44C2.89 17.22 2 16.33 2 12.78V6.44C2 2.89 2.89 2 6.44 2Z" stroke="white" stroke-width="1.5" stroke-linecap="round" stroke-linejoin="round"/>
<path d="M12 17.22V22" stroke="white" stroke-width="1.5" stroke-linecap="round" stroke-linejoin="round"/>
<path d="M2 13H22" stroke="white" stroke-width="1.5" stroke-linecap="round" stroke-linejoin="round"/>
<path d="M7.5 22H16.5" stroke="white" stroke-width="1.5" stroke-linecap="round" stroke-linejoin="round"/>
<path d="M10.0444 4C12.8629 4.35994 14.9311 6.43418 15.2971 9.25269" stroke="white" stroke-linecap="round" stroke-linejoin="round"/>
<path d="M9.39111 6.05005C11.4592 6.31238 12.9783 7.83755 13.2467 9.90568" stroke="white" stroke-linecap="round" stroke-linejoin="round"/>
<path d="M9.00049 8.3623C10.0315 8.49652 10.7941 9.25301 10.9283 10.2901" stroke="white" stroke-linecap="round" stroke-linejoin="round"/>
</svg>
