<svg width="25" height="24" viewBox="0 0 25 24" fill="none" xmlns="http://www.w3.org/2000/svg">
<path d="M18.3303 7.77C18.2603 7.76 18.1903 7.76 18.1203 7.77C16.5703 7.72 15.3403 6.45 15.3403 4.89C15.3403 3.3 16.6303 2 18.2303 2C19.8203 2 21.1203 3.29 21.1203 4.89C21.1103 6.45 19.8803 7.72 18.3303 7.77Z" fill="#82FF35"/>
<path d="M21.5904 14.6999C20.4704 15.4499 18.9004 15.7299 17.4504 15.5399C17.8304 14.7199 18.0304 13.8099 18.0404 12.8499C18.0404 11.8499 17.8204 10.8999 17.4004 10.0699C18.8804 9.86991 20.4504 10.1499 21.5804 10.8999C23.1604 11.9399 23.1604 13.6499 21.5904 14.6999Z" fill="#82FF35"/>
<path d="M7.24045 7.77C7.31045 7.76 7.38045 7.76 7.45045 7.77C9.00045 7.72 10.2304 6.45 10.2304 4.89C10.2304 3.29 8.94045 2 7.34045 2C5.75045 2 4.46045 3.29 4.46045 4.89C4.46045 6.45 5.69045 7.72 7.24045 7.77Z" fill="#82FF35"/>
<path d="M7.35041 12.8501C7.35041 13.8201 7.56041 14.7401 7.94041 15.5701C6.53041 15.7201 5.06041 15.4201 3.98041 14.7101C2.40041 13.6601 2.40041 11.9501 3.98041 10.9001C5.05041 10.1801 6.56041 9.8901 7.98041 10.0501C7.57041 10.8901 7.35041 11.8401 7.35041 12.8501Z" fill="#82FF35"/>
<path d="M12.9201 15.87C12.8401 15.86 12.7501 15.86 12.6601 15.87C10.8201 15.81 9.3501 14.3 9.3501 12.44C9.3601 10.54 10.8901 9 12.8001 9C14.7001 9 16.2401 10.54 16.2401 12.44C16.2301 14.3 14.7701 15.81 12.9201 15.87Z" fill="#82FF35"/>
<path d="M9.6701 17.9399C8.1601 18.9499 8.1601 20.6099 9.6701 21.6099C11.3901 22.7599 14.2101 22.7599 15.9301 21.6099C17.4401 20.5999 17.4401 18.9399 15.9301 17.9399C14.2201 16.7899 11.4001 16.7899 9.6701 17.9399Z" fill="#82FF35"/>
</svg>
