<svg width="25" height="24" viewBox="0 0 25 24" fill="none" xmlns="http://www.w3.org/2000/svg">
<path d="M18.8004 7.16C18.7404 7.15 18.6704 7.15 18.6104 7.16C17.2304 7.11 16.1304 5.98 16.1304 4.58C16.1304 3.15 17.2804 2 18.7104 2C20.1404 2 21.2904 3.16 21.2904 4.58C21.2804 5.98 20.1804 7.11 18.8004 7.16Z" stroke="white" stroke-width="1.5" stroke-linecap="round" stroke-linejoin="round"/>
<path d="M17.7702 14.44C19.1402 14.67 20.6502 14.43 21.7102 13.72C23.1202 12.78 23.1202 11.24 21.7102 10.3C20.6402 9.59004 19.1102 9.35003 17.7402 9.59003" stroke="white" stroke-width="1.5" stroke-linecap="round" stroke-linejoin="round"/>
<path d="M6.77028 7.16C6.83028 7.15 6.90027 7.15 6.96027 7.16C8.34027 7.11 9.44027 5.98 9.44027 4.58C9.44027 3.15 8.29028 2 6.86028 2C5.43028 2 4.28027 3.16 4.28027 4.58C4.29027 5.98 5.39028 7.11 6.77028 7.16Z" stroke="white" stroke-width="1.5" stroke-linecap="round" stroke-linejoin="round"/>
<path d="M7.80023 14.44C6.43023 14.67 4.92023 14.43 3.86023 13.72C2.45023 12.78 2.45023 11.24 3.86023 10.3C4.93023 9.59004 6.46023 9.35003 7.83023 9.59003" stroke="white" stroke-width="1.5" stroke-linecap="round" stroke-linejoin="round"/>
<path d="M12.8004 14.63C12.7404 14.62 12.6704 14.62 12.6104 14.63C11.2304 14.58 10.1304 13.45 10.1304 12.05C10.1304 10.62 11.2804 9.46997 12.7104 9.46997C14.1404 9.46997 15.2904 10.63 15.2904 12.05C15.2804 13.45 14.1804 14.59 12.8004 14.63Z" stroke="white" stroke-width="1.5" stroke-linecap="round" stroke-linejoin="round"/>
<path d="M9.89051 17.78C8.48051 18.72 8.48051 20.26 9.89051 21.2C11.4905 22.27 14.1105 22.27 15.7105 21.2C17.1205 20.26 17.1205 18.72 15.7105 17.78C14.1205 16.72 11.4905 16.72 9.89051 17.78Z" stroke="white" stroke-width="1.5" stroke-linecap="round" stroke-linejoin="round"/>
</svg>
