<svg width="25" height="24" viewBox="0 0 25 24" fill="none" xmlns="http://www.w3.org/2000/svg">
<path d="M12.9299 20.4201H6.6099C3.4499 20.4201 2.3999 18.3201 2.3999 16.2101V7.79008C2.3999 4.63008 3.4499 3.58008 6.6099 3.58008H12.9299C16.0899 3.58008 17.1399 4.63008 17.1399 7.79008V16.2101C17.1399 19.3701 16.0799 20.4201 12.9299 20.4201Z" stroke="white" stroke-width="1.5" stroke-linecap="round" stroke-linejoin="round"/>
<path d="M19.9201 17.0999L17.1401 15.1499V8.83989L19.9201 6.88989C21.2801 5.93989 22.4001 6.51989 22.4001 8.18989V15.8099C22.4001 17.4799 21.2801 18.0599 19.9201 17.0999Z" stroke="white" stroke-width="1.5" stroke-linecap="round" stroke-linejoin="round"/>
<path d="M11.8999 11C12.7283 11 13.3999 10.3284 13.3999 9.5C13.3999 8.67157 12.7283 8 11.8999 8C11.0715 8 10.3999 8.67157 10.3999 9.5C10.3999 10.3284 11.0715 11 11.8999 11Z" stroke="white" stroke-width="1.5" stroke-linecap="round" stroke-linejoin="round"/>
</svg>
