<svg width="25" height="24" viewBox="0 0 25 24" fill="none" xmlns="http://www.w3.org/2000/svg">
<path d="M21.5501 6.17C21.1401 5.95 20.2801 5.72 19.1101 6.54L17.6401 7.58C17.5301 4.47 16.1801 3.25 12.9001 3.25H6.90015C3.48015 3.25 2.15015 4.58 2.15015 8V16C2.15015 18.3 3.40015 20.75 6.90015 20.75H12.9001C16.1801 20.75 17.5301 19.53 17.6401 16.42L19.1101 17.46C19.7301 17.9 20.2701 18.04 20.7001 18.04C21.0701 18.04 21.3601 17.93 21.5501 17.83C21.9601 17.62 22.6501 17.05 22.6501 15.62V8.38C22.6501 6.95 21.9601 6.38 21.5501 6.17ZM11.4001 11.38C10.3701 11.38 9.52015 10.54 9.52015 9.5C9.52015 8.46 10.3701 7.62 11.4001 7.62C12.4301 7.62 13.2801 8.46 13.2801 9.5C13.2801 10.54 12.4301 11.38 11.4001 11.38Z" fill="black"/>
</svg>
